# xmcd
#
# Track frame offsets:
#	150
#	19287
#	35570
#	53970
#	68896
#	80539
#	95352
#	110730
#	127382
#	143287
#	171248
#
# Disc length: 2547 seconds
#
# Revision: 1
# Processed by: cddbd v1.5.2PL0 Copyright (c) Steve Scherf et al.
# Submitted via: audiograbber 1.83.01
#
DISCID=9c09f10b
DTITLE=Various Artist - All Star Country Vol 5
DYEAR=1900
DGENRE=Karaoke - Country
TTITLE0=Amy Dalley - I Would Cry
TTITLE1=Andy Griggs - If Heaven
TTITLE2=Big and Rich - Holy Water
TTITLE3=Craig Morgan - That's What I Love About Sunday
TTITLE4=Craig Morgan - Look At Us
TTITLE5=David Lee Murphy - Loco
TTITLE6=Julie Roberts - Wake Up Older
TTITLE7=Kenny Chesney feat Uncle Kracker - When The Sun Goes Down
TTITLE8=Montgomery Gentry - If You Ever Stop Loving Me
TTITLE9=Reba McEntire - He Gets That From Me
TTITLE10=Data Track - Data Track
EXTD=karaoke
EXTT0=
EXTT1=
EXTT2=
EXTT3=
EXTT4=
EXTT5=
EXTT6=
EXTT7=
EXTT8=
EXTT9=
EXTT10=
PLAYORDER=
